<svg width="109" height="26" viewBox="0 0 109 26" fill="none" xmlns="http://www.w3.org/2000/svg">
<g clip-path="url(#clip0_922_3556)">
<path d="M4.64904 25.838L9.25789 -0.0214233H-0.00415039L4.61062 25.838H4.64904Z" fill="white"/>
<path d="M26.0708 6.8088C23.9576 2.74345 19.8045 -0.0213623 15.0272 -0.0213623H11.3327L10.1157 6.8088H14.2723C17.4182 6.95602 19.9251 9.63775 19.9251 12.9255C19.9251 16.2132 17.4241 18.8894 14.283 19.0421H7.93802L6.72034 25.8729H15.0272C19.8051 25.8729 23.9582 23.1087 26.0708 19.0421C27.0177 17.2211 27.5551 15.1374 27.5551 12.9261C27.5551 10.7147 27.0177 8.62981 26.0708 6.8088Z" fill="white"/>
<path d="M42.4385 4.29443H34.0861V21.5339L42.4385 21.5565C45.6239 21.5565 48.3927 19.7135 49.8007 17.003C50.432 15.7886 50.7902 14.4001 50.7902 12.9255C50.7902 11.4508 50.432 10.0611 49.8007 8.84727C48.3915 6.13683 45.6227 4.29382 42.4385 4.29382V4.29443ZM41.9419 17.003H38.9125V8.84727H41.9348C44.0321 8.94562 45.7031 10.7336 45.7031 12.9248C45.7031 15.116 44.0356 16.901 41.9419 17.0024V17.003Z" fill="white"/>
<path d="M51.6095 8.82466H55.5173V21.5571H60.5967V8.82466H64.5045V4.29443H51.6095V8.82466Z" fill="white"/>
<path d="M104.178 4.29443V10.4319H99.3514V4.29443H94.5256V21.5571H99.3514V15.4196H104.178V21.5571H109.004V4.29443H104.178Z" fill="white"/>
<path d="M68.4708 4.29443H66.2098V10.6603V15.1906V21.5571H68.4708H71.2886H79.1054V17.0268H71.2886V15.1906H72.6576H75.8815V10.6603H72.6576H71.2886V8.82405H79.1054V4.29443H71.2886H68.4708Z" fill="white"/>
<path d="M80.9136 8.84788C80.2823 10.0623 79.9241 11.4508 79.9241 12.9255C79.9241 14.4001 80.2823 15.7898 80.9136 17.0036C82.3228 19.7141 85.0915 21.5571 88.2758 21.5571H92.8196V17.0036H88.7794C86.6822 16.9053 85.0111 15.1173 85.0111 12.9261C85.0111 10.7349 86.6786 8.94989 88.7723 8.84849H92.8196V4.29504H88.2758C85.0903 4.29504 82.3216 6.13805 80.9136 8.84849V8.84788Z" fill="white"/>
</g>
<defs>
<clipPath id="clip0_922_3556">
<rect width="109" height="26" fill="white"/>
</clipPath>
</defs>
</svg>
