<svg width="30" height="30" viewBox="0 0 30 30" fill="none" xmlns="http://www.w3.org/2000/svg">
<path d="M13.7068 19.7115C13.7068 18.2965 13.8699 17.2131 14.196 16.4615C14.5221 15.71 15.2028 14.8766 16.2381 13.9615C17.0442 13.2436 17.6552 12.5926 18.071 12.0084C18.4869 11.4243 18.6948 10.762 18.6948 10.0216C18.6948 9.03926 18.3603 8.22275 17.6912 7.5721C17.0221 6.92145 16.101 6.59613 14.9279 6.59613C13.8574 6.59613 13.0241 6.88299 12.4279 7.45669C11.8318 8.0304 11.3791 8.67062 11.0698 9.37735L8.78857 8.37498C9.27416 7.17787 10.0322 6.17989 11.0626 5.38104C12.093 4.58216 13.3815 4.18272 14.9279 4.18272C16.9472 4.18272 18.5013 4.75204 19.5902 5.89066C20.6791 7.02927 21.2236 8.38062 21.2236 9.94473C21.2236 10.9223 21.0116 11.7849 20.5878 12.5324C20.1639 13.28 19.5209 14.0585 18.6587 14.8678C17.5738 15.863 16.9019 16.6478 16.6431 17.2223C16.3842 17.7969 16.2548 18.6266 16.2548 19.7115H13.7068ZM14.9279 26.875C14.4167 26.875 13.9764 26.6903 13.6071 26.3209C13.2377 25.9515 13.053 25.5112 13.053 25C13.053 24.4888 13.2377 24.0485 13.6071 23.6791C13.9764 23.3097 14.4167 23.125 14.9279 23.125C15.4392 23.125 15.8794 23.3097 16.2488 23.6791C16.6182 24.0485 16.8029 24.4888 16.8029 25C16.8029 25.5112 16.6182 25.9515 16.2488 26.3209C15.8794 26.6903 15.4392 26.875 14.9279 26.875Z" fill="white"/>
</svg>
