<svg width="20" height="20" viewBox="0 0 20 20" fill="none" xmlns="http://www.w3.org/2000/svg">
<g clip-path="url(#clip0_1373_5808)">
<path d="M20 5.1999C20 11.5666 11.5583 19.9999 5.19997 19.9999C3.80831 19.9999 2.50831 19.4749 1.54997 18.5166L0.716639 17.5582C-0.250027 16.5916 -0.250027 14.9582 0.758306 13.9499C0.783306 13.9249 2.79164 12.3832 2.79164 12.3832C3.79164 11.4332 5.36664 11.4332 6.35831 12.3832L7.57497 13.3582C10.2416 12.2249 12.1333 10.3249 13.35 7.56657L12.3833 6.3499C11.425 5.35824 11.425 3.7749 12.3833 2.78324C12.3833 2.78324 13.925 0.774902 13.95 0.749902C14.9583 -0.258431 16.5916 -0.258431 17.6 0.749902L18.475 1.50824C19.475 2.4999 20 3.7999 20 5.19157V5.1999Z" fill="white"/>
</g>
<defs>
<clipPath id="clip0_1373_5808">
<rect width="20" height="20" fill="white"/>
</clipPath>
</defs>
</svg>
